REM DIRINDEX 1
REM DIRNAME cjc069
TITLE ""
FILE "Disk2Track29.mp3" MP3
  TRACK 01 AUDIO
    TITLE "1:cjc069_0635"
    INDEX 01 00:00:00
  TRACK 02 AUDIO
    TITLE "1:cjc069_0636"
    INDEX 01 00:03:02
  TRACK 03 AUDIO
    TITLE "1:cjc069_0637"
    INDEX 01 00:19:11
  TRACK 04 AUDIO
    TITLE "1:cjc069_0638"
    INDEX 01 00:28:64
  TRACK 05 AUDIO
    TITLE "1:cjc069_0639"
    INDEX 01 00:37:20
  TRACK 06 AUDIO
    TITLE "0:"
    INDEX 01 00:50:60
